<?xml version="1.0" encoding="UTF-8" standalone="no"?>
<!DOCTYPE svg PUBLIC "-//W3C//DTD SVG 1.1//EN"
 "http://www.w3.org/Graphics/SVG/1.1/DTD/svg11.dtd">
<!-- Generated by graphviz version 2.38.0 (20140413.2041)
 -->
<!-- Title: Tree Pages: 1 -->
<svg width="368pt" height="433pt"
 viewBox="0.00 0.00 368.00 433.00" xmlns="http://www.w3.org/2000/svg" xmlns:xlink="http://www.w3.org/1999/xlink">
<g id="graph0" class="graph" transform="scale(1 1) rotate(0) translate(4 429)">
<title>Tree</title>
<polygon fill="white" stroke="none" points="-4,4 -4,-429 364,-429 364,4 -4,4"/>
<!-- 0 -->
<g id="node1" class="node"><title>0</title>
<path fill="#ffffff" stroke="black" d="M210,-425C210,-425 69,-425 69,-425 63,-425 57,-419 57,-413 57,-413 57,-354 57,-354 57,-348 63,-342 69,-342 69,-342 210,-342 210,-342 216,-342 222,-348 222,-354 222,-354 222,-413 222,-413 222,-419 216,-425 210,-425"/>
<text text-anchor="start" x="65" y="-409.8" font-family="Helvetica,sans-Serif" font-size="14.00">petal length (cm) ≤ 2.45</text>
<text text-anchor="start" x="102" y="-394.8" font-family="Helvetica,sans-Serif" font-size="14.00">gini = 0.667</text>
<text text-anchor="start" x="92" y="-379.8" font-family="Helvetica,sans-Serif" font-size="14.00">samples = 150</text>
<text text-anchor="start" x="79" y="-364.8" font-family="Helvetica,sans-Serif" font-size="14.00">value = [50, 50, 50]</text>
<text text-anchor="start" x="93.5" y="-349.8" font-family="Helvetica,sans-Serif" font-size="14.00">class = setosa</text>
</g>
<!-- 1 -->
<g id="node2" class="node"><title>1</title>
<path fill="#e58139" stroke="black" d="M109,-298.5C109,-298.5 12,-298.5 12,-298.5 6,-298.5 0,-292.5 0,-286.5 0,-286.5 0,-242.5 0,-242.5 0,-236.5 6,-230.5 12,-230.5 12,-230.5 109,-230.5 109,-230.5 115,-230.5 121,-236.5 121,-242.5 121,-242.5 121,-286.5 121,-286.5 121,-292.5 115,-298.5 109,-298.5"/>
<text text-anchor="start" x="31.5" y="-283.3" font-family="Helvetica,sans-Serif" font-size="14.00">gini = 0.0</text>
<text text-anchor="start" x="17" y="-268.3" font-family="Helvetica,sans-Serif" font-size="14.00">samples = 50</text>
<text text-anchor="start" x="8" y="-253.3" font-family="Helvetica,sans-Serif" font-size="14.00">value = [50, 0, 0]</text>
<text text-anchor="start" x="14.5" y="-238.3" font-family="Helvetica,sans-Serif" font-size="14.00">class = setosa</text>
</g>
<!-- 0&#45;&gt;1 -->
<g id="edge1" class="edge"><title>0&#45;&gt;1</title>
<path fill="none" stroke="black" d="M112.091,-341.907C104.492,-330.652 96.2312,-318.418 88.5931,-307.106"/>
<polygon fill="black" stroke="black" points="91.3914,-304.996 82.8948,-298.667 85.5901,-308.913 91.3914,-304.996"/>
<text text-anchor="middle" x="78.1364" y="-319.51" font-family="Helvetica,sans-Serif" font-size="14.00">True</text>
</g>
<!-- 2 -->
<g id="node3" class="node"><title>2</title>
<path fill="#ffffff" stroke="black" d="M286,-306C286,-306 151,-306 151,-306 145,-306 139,-300 139,-294 139,-294 139,-235 139,-235 139,-229 145,-223 151,-223 151,-223 286,-223 286,-223 292,-223 298,-229 298,-235 298,-235 298,-294 298,-294 298,-300 292,-306 286,-306"/>
<text text-anchor="start" x="147" y="-290.8" font-family="Helvetica,sans-Serif" font-size="14.00">petal width (cm) ≤ 1.75</text>
<text text-anchor="start" x="189.5" y="-275.8" font-family="Helvetica,sans-Serif" font-size="14.00">gini = 0.5</text>
<text text-anchor="start" x="171" y="-260.8" font-family="Helvetica,sans-Serif" font-size="14.00">samples = 100</text>
<text text-anchor="start" x="162" y="-245.8" font-family="Helvetica,sans-Serif" font-size="14.00">value = [0, 50, 50]</text>
<text text-anchor="start" x="163" y="-230.8" font-family="Helvetica,sans-Serif" font-size="14.00">class = versicolor</text>
</g>
<!-- 0&#45;&gt;2 -->
<g id="edge2" class="edge"><title>0&#45;&gt;2</title>
<path fill="none" stroke="black" d="M166.909,-341.907C172.914,-333.014 179.331,-323.509 185.529,-314.331"/>
<polygon fill="black" stroke="black" points="188.444,-316.267 191.14,-306.021 182.643,-312.35 188.444,-316.267"/>
<text text-anchor="middle" x="195.898" y="-326.864" font-family="Helvetica,sans-Serif" font-size="14.00">False</text>
</g>
<!-- 3 -->
<g id="node4" class="node"><title>3</title>
<path fill="#4de88e" stroke="black" d="M209,-187C209,-187 68,-187 68,-187 62,-187 56,-181 56,-175 56,-175 56,-116 56,-116 56,-110 62,-104 68,-104 68,-104 209,-104 209,-104 215,-104 221,-110 221,-116 221,-116 221,-175 221,-175 221,-181 215,-187 209,-187"/>
<text text-anchor="start" x="64" y="-171.8" font-family="Helvetica,sans-Serif" font-size="14.00">petal length (cm) ≤ 4.95</text>
<text text-anchor="start" x="101" y="-156.8" font-family="Helvetica,sans-Serif" font-size="14.00">gini = 0.168</text>
<text text-anchor="start" x="95" y="-141.8" font-family="Helvetica,sans-Serif" font-size="14.00">samples = 54</text>
<text text-anchor="start" x="86" y="-126.8" font-family="Helvetica,sans-Serif" font-size="14.00">value = [0, 49, 5]</text>
<text text-anchor="start" x="83" y="-111.8" font-family="Helvetica,sans-Serif" font-size="14.00">class = versicolor</text>
</g>
<!-- 2&#45;&gt;3 -->
<g id="edge3" class="edge"><title>2&#45;&gt;3</title>
<path fill="none" stroke="black" d="M190.744,-222.907C184.663,-214.014 178.164,-204.509 171.889,-195.331"/>
<polygon fill="black" stroke="black" points="174.74,-193.3 166.207,-187.021 168.962,-197.251 174.74,-193.3"/>
</g>
<!-- 6 -->
<g id="node7" class="node"><title>6</title>
<path fill="#843de6" stroke="black" d="M348,-179.5C348,-179.5 251,-179.5 251,-179.5 245,-179.5 239,-173.5 239,-167.5 239,-167.5 239,-123.5 239,-123.5 239,-117.5 245,-111.5 251,-111.5 251,-111.5 348,-111.5 348,-111.5 354,-111.5 360,-117.5 360,-123.5 360,-123.5 360,-167.5 360,-167.5 360,-173.5 354,-179.5 348,-179.5"/>
<text text-anchor="start" x="262" y="-164.3" font-family="Helvetica,sans-Serif" font-size="14.00">gini = 0.043</text>
<text text-anchor="start" x="256" y="-149.3" font-family="Helvetica,sans-Serif" font-size="14.00">samples = 46</text>
<text text-anchor="start" x="247" y="-134.3" font-family="Helvetica,sans-Serif" font-size="14.00">value = [0, 1, 45]</text>
<text text-anchor="start" x="249.5" y="-119.3" font-family="Helvetica,sans-Serif" font-size="14.00">class = virginica</text>
</g>
<!-- 2&#45;&gt;6 -->
<g id="edge6" class="edge"><title>2&#45;&gt;6</title>
<path fill="none" stroke="black" d="M246.603,-222.907C254.395,-211.652 262.864,-199.418 270.696,-188.106"/>
<polygon fill="black" stroke="black" points="273.724,-189.881 276.538,-179.667 267.968,-185.897 273.724,-189.881"/>
</g>
<!-- 4 -->
<g id="node5" class="node"><title>4</title>
<path fill="#3de684" stroke="black" d="M120,-68C120,-68 17,-68 17,-68 11,-68 5,-62 5,-56 5,-56 5,-12 5,-12 5,-6 11,-0 17,-0 17,-0 120,-0 120,-0 126,-0 132,-6 132,-12 132,-12 132,-56 132,-56 132,-62 126,-68 120,-68"/>
<text text-anchor="start" x="31" y="-52.8" font-family="Helvetica,sans-Serif" font-size="14.00">gini = 0.041</text>
<text text-anchor="start" x="25" y="-37.8" font-family="Helvetica,sans-Serif" font-size="14.00">samples = 48</text>
<text text-anchor="start" x="16" y="-22.8" font-family="Helvetica,sans-Serif" font-size="14.00">value = [0, 47, 1]</text>
<text text-anchor="start" x="13" y="-7.8" font-family="Helvetica,sans-Serif" font-size="14.00">class = versicolor</text>
</g>
<!-- 3&#45;&gt;4 -->
<g id="edge4" class="edge"><title>3&#45;&gt;4</title>
<path fill="none" stroke="black" d="M112.435,-103.726C106.837,-94.9703 100.913,-85.7032 95.2886,-76.9051"/>
<polygon fill="black" stroke="black" points="98.1226,-74.8399 89.7874,-68.2996 92.2247,-78.6103 98.1226,-74.8399"/>
</g>
<!-- 5 -->
<g id="node6" class="node"><title>5</title>
<path fill="#c09cf2" stroke="black" d="M254.5,-68C254.5,-68 162.5,-68 162.5,-68 156.5,-68 150.5,-62 150.5,-56 150.5,-56 150.5,-12 150.5,-12 150.5,-6 156.5,-0 162.5,-0 162.5,-0 254.5,-0 254.5,-0 260.5,-0 266.5,-6 266.5,-12 266.5,-12 266.5,-56 266.5,-56 266.5,-62 260.5,-68 254.5,-68"/>
<text text-anchor="start" x="171" y="-52.8" font-family="Helvetica,sans-Serif" font-size="14.00">gini = 0.444</text>
<text text-anchor="start" x="169" y="-37.8" font-family="Helvetica,sans-Serif" font-size="14.00">samples = 6</text>
<text text-anchor="start" x="160" y="-22.8" font-family="Helvetica,sans-Serif" font-size="14.00">value = [0, 2, 4]</text>
<text text-anchor="start" x="158.5" y="-7.8" font-family="Helvetica,sans-Serif" font-size="14.00">class = virginica</text>
</g>
<!-- 3&#45;&gt;5 -->
<g id="edge5" class="edge"><title>3&#45;&gt;5</title>
<path fill="none" stroke="black" d="M164.565,-103.726C170.163,-94.9703 176.087,-85.7032 181.711,-76.9051"/>
<polygon fill="black" stroke="black" points="184.775,-78.6103 187.213,-68.2996 178.877,-74.8399 184.775,-78.6103"/>
</g>
</g>
</svg>
